<svg xmlns="http://www.w3.org/2000/svg" xmlns:xlink="http://www.w3.org/1999/xlink" width="540" height="309" viewBox="0 0 540 309"><defs><style>.a,.ac,.k,.n,.o,.x{fill:none;}.b,.e{fill:#4cc5dd;}.b{opacity:0.22;}.c{fill:#4385f4;opacity:0.2;}.d{fill:#f5c5b3;}.f{fill:#fec4ad;}.g{fill:#e8d4e5;}.h{fill:#7b2b1a;}.i{fill:#133a50;}.j{fill:#fff;}.k,.o{stroke:#fff;}.k,.n,.o{stroke-miterlimit:10;}.k{stroke-width:2px;}.l{fill:#4fae86;}.m{fill:#5cbd76;}.n{stroke:#194459;}.p{fill:url(#a);}.q{fill:#2b4e72;}.r{fill:#cfcfcf;}.s{fill:#b3b3b3;}.t{clip-path:url(#e);}.u{fill:#ffcb21;}.v{fill:#b1853e;}.w,.x{opacity:0.7;}.w{fill:url(#f);}.y{fill:#21295b;}.z{fill:url(#g);}.aa{fill:url(#h);}.ab{fill:#471a16;}.ac{stroke:#000;opacity:0.3;}</style><linearGradient id="a" x1="0.5" x2="0.5" y2="1" gradientUnits="objectBoundingBox"><stop offset="0" stop-color="#2b4e72"/><stop offset="1" stop-color="#162739"/></linearGradient><clipPath id="e"><rect class="a" width="143.352" height="94.649" rx="14.22"/></clipPath><radialGradient id="f" cx="0.109" cy="0.359" r="0.627" gradientTransform="translate(0.159) scale(0.683 1)" gradientUnits="objectBoundingBox"><stop offset="0" stop-color="#fff"/><stop offset="1" stop-color="#fff" stop-opacity="0"/></radialGradient><linearGradient id="g" x1="-0.694" y1="0.5" x2="0.307" y2="0.5" gradientUnits="objectBoundingBox"><stop offset="0" stop-color="#343a44"/><stop offset="0.3" stop-color="#232d3e"/><stop offset="0.64" stop-color="#182439"/><stop offset="1" stop-color="#142138"/></linearGradient><linearGradient id="h" x1="0.15" y1="0.5" x2="1.15" y2="0.5" xlink:href="#g"/></defs><g transform="translate(13.141 2.707)"><g transform="translate(9.357 0.212)"><path class="b" d="M134.367,234.32c-27.178,17.091-41.416,55.6-19.432,106.927H547.8c7.34-18.6,11.739-43.023,13.116-57.57,3.012-31.718-7.773-64.672-26.78-82.063-48.1-44.021-88.1,17.126-113.374-8.727-14.6-14.918-13.249-56.8-24.634-76.242A116.337,116.337,0,0,0,276.65,60.169c-31.144,5.052-59.231,21.534-76.366,49.462-23.468,38.183-6.386,65.546-16.782,91.938C172.029,230.955,152.518,222.9,134.367,234.32Z" transform="translate(-94.524 -38.657)"/><path class="c" d="M156.637,316.1c7.222-12.693,19.958-34.838,32.593-51.327a302.906,302.906,0,0,1,48.6-50.489c2.086-1.751,4.34-3.427,6.569-5.153s4.516-3.444,6.87-5.119,4.767-3.31,7.172-4.943l3.687-2.421,3.7-2.312c2.514-1.525,4.943-3.025,7.39-4.474s4.968-2.757,7.4-4.072,4.834-2.581,7.231-3.72,4.767-2.2,7.055-3.2l3.351-1.458,1.676-.687,1.676-.62c2.178-.8,4.273-1.533,6.259-2.178s3.879-1.232,5.647-1.676,3.494-.838,5.027-1.064c6.225-1.064,10.306-.737,11.428,1.332s-.687,5.739-4.483,10.406c-.938,1.181-2.036,2.354-3.184,3.7s-2.413,2.723-3.77,4.189-2.815,2.916-4.357,4.432-3.083,3.2-4.742,4.843-3.393,3.31-5.161,5.027-3.553,3.561-5.4,5.362c-3.745,3.536-7.5,7.415-11.437,11.152l-1.475,1.408-1.458,1.449-2.924,2.891c-1.961,1.927-3.971,3.787-5.915,5.714s-3.9,3.837-5.865,5.706l-2.924,2.773L264,244.347c-2.178,2.1-4.374,4.139-6.552,6.15s-4.307,4.047-6.452,6.007l-3.226,2.9-3.243,2.857q-3.175,2.865-6.334,5.589c-4.189,3.695-8.328,7.206-12.4,10.607s-8.077,6.594-12,9.778a495.7,495.7,0,0,1-42.538,30.3Z" transform="translate(42.403 -92.67)"/><path class="c" d="M259.731,297.452A383.136,383.136,0,0,1,282.8,197.789c2.455-6.46,5.094-12.97,8.085-19.656,1.458-3.351,3.083-6.7,4.7-10.054s3.4-6.8,5.228-10.214a251.875,251.875,0,0,1,22.4-34.687,171.134,171.134,0,0,1,27.708-28.7c2.3-1.935,4.717-3.62,7-5.211,1.148-.788,2.262-1.558,3.351-2.279s2.262-1.349,3.351-1.969,2.153-1.223,3.175-1.785l1.525-.838c.52-.251,1.031-.486,1.533-.712q3.029-1.357,5.63-2.3a29.71,29.71,0,0,1,4.859-1.341,21.416,21.416,0,0,1,3.93-.452c2.279,0,3.854.519,4.658,1.676s.838,2.815.251,4.927a23.291,23.291,0,0,1-1.307,3.46c-.285.62-.62,1.257-.964,1.935s-.687,1.424-1.072,2.17c-.779,1.483-1.676,3.05-2.664,4.684s-1.961,3.5-3.092,5.337-2.229,3.863-3.444,5.865c-.6,1.031-1.24,2.044-1.86,3.125s-1.215,2.2-1.843,3.351c-5.077,8.948-10.49,19.346-15.76,30.465s-10.4,22.907-15.35,34.159q-2.162,4.851-4.265,9.61l-4.273,9.392c-2.865,6.25-5.773,12.384-8.672,18.3-5.815,11.839-11.638,22.932-17.361,33.271-11.453,20.662-22.454,38.307-31.838,52.559Z" transform="translate(-105.875 -77.59)"/><path class="c" d="M500.561,409.03c-8.035-9.66-17.679-21.491-28.328-35.24s-22.413-29.325-34.721-47.037c-10.331-14.855-22.463-32.316-31.839-46.635s-15.861-25.6-12.987-28.672,14.688,2.438,29.116,12.895c1.793,1.3,3.653,2.664,5.521,4.106s3.72,2.991,5.622,4.558c3.829,3.117,7.591,6.577,11.395,10.1,1.919,1.743,3.729,3.62,5.58,5.454s3.686,3.7,5.454,5.614,3.494,3.829,5.186,5.739l2.514,2.874c.838.972,1.609,1.935,2.4,2.9q2.715,3.351,5.279,6.619c1.676,2.229,3.284,4.466,4.86,6.7l2.329,3.351c.754,1.114,1.475,2.237,2.2,3.351q2.162,3.351,4.189,6.627c1.341,2.2,2.581,4.432,3.812,6.611s2.438,4.332,3.519,6.518,2.153,4.323,3.176,6.452l1.5,3.159,1.391,3.1c7.3,16.757,12.635,37.285,15.157,49.744Z" transform="translate(-338.989 -105.643)"/><path class="d" d="M181.9,178.735a37.352,37.352,0,0,0,3.957-2.243l1.7-2.65s1.66-1.069,2.844-1.652,3.383-4.134,3.383-4.134l-.883-1.086a15.135,15.135,0,0,1-1.661,1.766,2.111,2.111,0,0,1-1.245,0,21.655,21.655,0,0,1,.963-2.65,24.807,24.807,0,0,1,2.65-4.134l-.76-.795a23.152,23.152,0,0,0-1.661,1.767c-.433.583-1.281,1.767-1.281,1.767a23.6,23.6,0,0,1,1.422-2.95c.539-.795,1.131-1.881,1.131-1.881l-.883-.609a21.427,21.427,0,0,0-1.563,2.217c-.53.954-1.51,2.535-1.51,2.535a30.64,30.64,0,0,1,1.122-3.118c.362-.7.5-1.06.5-1.06l-1.042-.353a8.247,8.247,0,0,0-1.236,2.2,11.548,11.548,0,0,1-.795,1.819,12.574,12.574,0,0,1,.654-2.65,2.439,2.439,0,0,0,.362-.883l-.883-.159s-1.625,2.994-2.482,4.849-1.519,4.363-2.005,5.723a53.873,53.873,0,0,0-1.1,5.98Z" transform="translate(-103.563 -50.402)"/><path class="e" d="M206.382,198.438l-20.571-3.533a68.457,68.457,0,0,1-.221-10.537c.362-6.183,1.113-7.879,1.113-7.879l-5.52-.76s-1.086,4.849-1.872,8.329c-1.766,7.728-3.321,15.015-2,16.587,1.926,2.341,19.043,7.066,24.908,11.482C205.746,214.77,205.543,206.308,206.382,198.438Z" transform="translate(-103.006 -52.326)"/><path class="f" d="M172.942,208.2l-1.042,7.119,2.146,4.875,1.572-2.129.362-3.975,2.323.353,1.139-1.431-.1-2.985-.38-8.108Z" transform="translate(-40.384 -3.59)"/><path class="e" d="M240.79,206.217c-1.59-.592-6.757-.2-6.757-.2s-.486,5.52,1.608,9.786,7.313,19.811,7.949,21.269-1.387,23.389-1.387,23.389l7.561-1.546s3.648-16.914,3.613-21.2-4.045-20.394-6.907-25.517S244.641,207.639,240.79,206.217Z" transform="translate(-109.68 -55.847)"/><path class="f" d="M225.944,188.35s-1.661,7.287-.362,8.983c.768,1,3.992,4.54,3.992,4.54s-10.7,5.653-13.849,5.653-2.049-6.315-2.049-6.315,3.436-2.712,3.948-4.081a30.675,30.675,0,0,0,.795-5.3Z" transform="translate(-107.288 -53.799)"/><path class="d" d="M228.976,188.308s-.124-2.65,2.1-2.588c1.422.044,1.528,1.351.424,3.03-.468.707-.512,2.305-1.086,2.818s-1.3-.336-1.51-.777a5.3,5.3,0,0,1,.071-2.482Z" transform="translate(-109.074 -53.492)"/><path class="d" d="M215.007,188.308s.124-2.65-2.1-2.588c-1.422.044-1.537,1.351-.424,3.03.459.707.512,2.305,1.086,2.818.707.627,1.3-.336,1.51-.777a5.3,5.3,0,0,0-.071-2.482Z" transform="translate(-107.082 -53.492)"/><path class="d" d="M229.388,180.412a24.989,24.989,0,0,1-.442,2.7c-.053.309-.115.662-.177,1.069-.459,3.189-1.042,7.525-1.29,8.17-.415,1.078-2.694,2.809-3.78,3.445a6.474,6.474,0,0,1-4.876-.132c-1.086-.636-3.533-2.235-3.948-3.312-.256-.654-.883-5.114-1.325-8.356-.053-.371-.1-.689-.15-.971a23.985,23.985,0,0,1-.442-2.65c-.159-2.65,2.871-6.607,8.223-6.607C227.506,173.805,229.556,177.718,229.388,180.412Z" transform="translate(-107.225 -52.097)"/><path class="g" d="M216,177.152a12.763,12.763,0,0,1,9.8.362l1.89-1.2a15.377,15.377,0,0,0-6.7-1.413C217.025,174.926,216,177.152,216,177.152Z" transform="translate(-107.581 -52.229)"/><path class="h" d="M229.005,184.248c-.053.309-.115.662-.177,1.069-.459,3.189-1.042,7.525-1.29,8.17-.415,1.078-2.694,2.809-3.78,3.445a6.474,6.474,0,0,1-4.876-.132c-1.086-.636-3.533-2.235-3.948-3.312-.256-.654-.883-5.114-1.325-8.356-.053-.371-.1-.689-.15-.972l.442-.654s.786,4.619,1.987,6.059,1.44,1.5,1.44,1.5l2.464-.609.2-.053a5.749,5.749,0,0,1,2.871,0l.159.044.177.053,1.872.539s.433-.071,1.643-1.5,1.766-6.059,1.766-6.059Z" transform="translate(-107.284 -53.231)"/><path class="h" d="M231.677,178.9c0,.088-.45,3.242-.627,3.736-.274.76-.486,1.316-.486,1.316l-.318-.707a10.6,10.6,0,0,1-.963-4.16l-.053-2.694.883-.795C231.9,175.865,232.083,176.89,231.677,178.9Z" transform="translate(-109.125 -52.311)"/><path class="h" d="M215.675,176.551h0l-.433,2.773a10.406,10.406,0,0,1-1.29,3.657v.062l-.495.883-.344-1.192c-.15-.512-.512-3.144-.6-3.533a2.06,2.06,0,0,0-.071-.336c-.38-1.978,0-2.809,1.766-3.065Z" transform="translate(-107.15 -52.334)"/><path class="h" d="M228.263,175.091l-.883.795-1.714.609a13.593,13.593,0,0,0-6.024-1.086c-3.436.265-3.9,1.254-3.948,1.316h0l-.353-.071-1.687-.371-.344-.079a10.237,10.237,0,0,1,.671-1.9c1.351-2.031,5.017-3.348,8.356-3.012h.336a8.073,8.073,0,0,1,4.54,1.881Z" transform="translate(-107.267 -51.802)"/><path class="i" d="M237.994,371.49v6.677H225.16s.486-2.42,6.571-3.533l.883-3.144Z" transform="translate(-108.65 -75.18)"/><path class="i" d="M215.894,371.49v6.677H203.06s.486-2.42,6.571-3.533l.883-3.144Z" transform="translate(-106.07 -75.18)"/><path class="i" d="M234.128,258.93s1.767,21.516,1.864,39.057,1.1,61.89,1.1,61.89H230.03s-7.3-42.59-9.954-53.878-9.566-46.865-9.566-46.865Z" transform="translate(-106.94 -62.039)"/><path class="i" d="M217.577,282.044s-1.325,26.727-1.59,31.991,0,45.823,0,45.823-6.642.177-6.642,0-6.253-43.2-7.066-56.166-.336-28.335-1.413-30.128S203.771,259,203.771,259l9.4,2.508Z" transform="translate(-105.792 -62.047)"/><path class="j" d="M215.022,200.114s-2.941,6.677,1.484,7.411c7.066,1.175,9.186-7.835,9.186-7.835l7.764,3.992s-.141,48.332,2.915,63.091c1.766,8.568-27.716,4.478-32.044-3.127-3.736-6.58,7.066-61.262,7.066-61.262Z" transform="translate(-106.126 -55.123)"/><path class="e" d="M229.659,200.64c-.212.291-10.6,30.772-7.066,59.461.821,6.686,13.019,1.148,15.9,1.148,0,0,1.378-21.41,1.722-29.368s-3.462-10.6-3.118-14.477,4.575-10.838,4.575-10.838Z" transform="translate(-108.265 -55.234)"/><path class="e" d="M209.743,263.167c1.192-19.935,1.678-61.678,1.678-61.678l-7.066-.53s-3.533,35.012-3.533,39c0,1.581.477,20.809-.592,24.4C202.571,264.713,209.584,265.57,209.743,263.167Z" transform="translate(-105.74 -55.272)"/><path class="k" d="M294.9,188.34c-5.52,1.9-11.2,3.877-15.581,7.737s-7.216,10.087-5.37,15.634,9.548,8.762,14,4.982c1.6-1.36,2.588-3.692,1.767-5.6-1.7-3.789-7.614-2.014-10.387,1.069-3.294,3.666-5.379,8.665-4.566,13.523s5.052,9.212,9.972,9.2,11.933-7.428,7.72-9.972c-5.353-3.224-12.224,4.469-14.856,10.131s-.989,13.346,4.416,16.526,17.992-.839,14.688-6.183c-3.533-5.6-13.814,2.482-15.183,8.939s3.683,13.54,10.237,14.335,17.921-6.668,13.381-11.482c-6.563-6.934-17.5,10.723-14.335,19.723s16.19,12.6,23.512,6.465c1.369-1.148,2.65-2.791,2.349-4.558-.424-2.95-4.46-3.78-7.278-2.835-7.375,2.464-10.7,12.772-6.183,19.078s15.377,6.421,20.05.212a5.353,5.353,0,0,0,1.289-4.2c-.468-2.067-2.906-3.224-4.982-2.835a8.1,8.1,0,0,0-4.946,3.71,15.151,15.151,0,0,0,23.548,18.91c1.343-1.422,2.456-3.321,2.1-5.246-.415-2.226-2.791-3.718-5.052-3.665a8.833,8.833,0,0,0-5.909,2.985c-6.6,6.845-3.78,20.1,5.034,23.68s26.295-6.271,20.112-13.487c-4.134-4.823-12.286,5.609-11.244,11.871s8.25,10.537,14.388,8.921,14.238-10.422,9.486-14.644c-3.356-2.985-8.833,3.33-9.822,7.7a10.325,10.325,0,0,0,5.3,11.3c4.346,2.129,9.663.883,13.841-1.6s7.64-5.935,11.659-8.621a36.425,36.425,0,0,1,27.866-5.22" transform="translate(-114.279 -53.798)"/><path class="l" d="M601.962,220.885c-8.947-5.715-88.7,61.519-85.773,114.629,0,0,15.519-20.96,29.05-31.179s14.857-20.915,14.83-31.506,20.209-6.183,22.488-17.974C586.594,234.063,610.009,226.017,601.962,220.885Z" transform="translate(-142.618 -57.558)"/><path class="m" d="M607.108,272.169c-12.887,7.808-9.089,18.2-16.685,24.28-5.529,4.416-14.75,2.111-19.344,8.126-5.176,6.783.707,16.119,1.148,24.289.6,11.3-9.469,19.758-19.705,23.185-11.88,3.983-27.257,2.738-33.758-9.08C511.08,329.033,516.83,308,530.3,301.458c3.268-1.59,7.428-2.023,10.1-5.247,4.513-5.432,1.616-13.249,3.71-20.173,2.031-6.73,8.7-11.482,14.838-13.576s12.366-2.526,18.389-4.964c8.162-3.312,15.316-10.6,22.082-15.519,6.068-4.416,27.381-12.622,30.834,1.767C633.438,256.8,617.927,265.571,607.108,272.169Z" transform="translate(-142.525 -59.318)"/><path class="n" d="M608.226,253.22s-52.659,26.5-94.676,111.855" transform="translate(-142.319 -61.373)"/><path class="o" d="M640.362,298.38s-67.719-.76-123.982,63.78" transform="translate(-142.649 -66.645)"/><path class="l" d="M608.51,330.289c-6.448,2.588-8.206,13.47-15.148,14.848-5.061,1.007-10.449-3.471-15.4-1.148-5.565,2.65-4.584,10.467-6.863,15.793-3.135,7.366-12.48,9.46-20.315,8.3-9.142-1.351-18.955-7.154-19.564-16.782-.724-11.359,9.716-22.832,20.686-22.6,2.65.053,5.564,1.139,8.355,0,4.7-1.979,5.229-7.887,8.788-11.6s9.371-4.416,14.132-3.789,9.018,2.438,13.77,2.853c6.465.556,13.5-1.767,19.555-2.65,5.406-.813,27.478-.38,19.917,11.173C631.13,332.674,617.113,326.853,608.51,330.289Z" transform="translate(-144.378 -68.365)"/><path class="n" d="M621.053,320.49s-47.042,3.984-101.733,44.534" transform="translate(-142.992 -69.226)"/><path class="m" d="M461,372.964s10.705-18.743,12.454-20.677c11.005-12.18,25.614-12.321,40.48-9.239,4.3.883,15.7,6.872,19.829,6.05,3.215-.645,7.066-12.887,17.382-12.242s10.926,12.878,10.926,12.878,6.466-14.212,16.782-12.9,10.3,10.908,2.579,18.018c0,0,16.42-4.929,32.354,2.7s8.329,17.665,8.329,17.665Z" transform="translate(-136.184 -71.125)"/><path class="l" d="M136.469,220.885c8.947-5.715,88.7,61.519,85.773,114.629,0,0-15.519-20.96-29.05-31.179s-14.856-20.915-14.83-31.506-20.209-6.183-22.488-17.974C151.838,234.063,128.423,226.017,136.469,220.885Z" transform="translate(-98.101 -57.558)"/><path class="m" d="M127.647,272.169c12.887,7.808,9.089,18.2,16.685,24.28,5.529,4.416,14.75,2.111,19.343,8.126,5.176,6.783-.707,16.119-1.148,24.289-.6,11.3,9.468,19.758,19.705,23.185,11.88,3.983,27.257,2.738,33.758-9.08,7.684-13.938,1.934-34.968-11.535-41.513-3.268-1.59-7.428-2.023-10.1-5.247-4.513-5.432-1.616-13.249-3.71-20.173-2.031-6.73-8.7-11.482-14.839-13.576s-12.366-2.526-18.389-4.964c-8.161-3.312-15.316-10.6-22.081-15.519-6.068-4.416-27.381-12.622-30.834,1.767C101.361,256.8,116.827,265.571,127.647,272.169Z" transform="translate(-94.516 -59.318)"/><path class="n" d="M129.26,253.22s52.66,26.5,94.676,111.855" transform="translate(-97.454 -61.373)"/><path class="o" d="M93.25,298.38s67.719-.76,123.982,63.78" transform="translate(-93.25 -66.645)"/><path class="l" d="M127.367,330.289c6.448,2.588,8.205,13.47,15.148,14.848,5.061,1.007,10.449-3.471,15.4-1.148,5.564,2.65,4.584,10.467,6.863,15.793,3.136,7.366,12.48,9.46,20.315,8.3,9.142-1.351,18.955-7.154,19.564-16.782.724-11.359-9.716-22.832-20.686-22.6-2.65.053-5.564,1.139-8.356,0-4.7-1.979-5.229-7.887-8.833-11.6s-9.371-4.416-14.132-3.789-9.018,2.438-13.77,2.853c-6.465.556-13.5-1.767-19.555-2.65-5.405-.813-27.478-.38-19.917,11.173C104.747,332.674,118.765,326.853,127.367,330.289Z" transform="translate(-93.786 -68.365)"/><path class="n" d="M115.5,320.49s47.042,4.01,101.733,44.534" transform="translate(-95.848 -69.226)"/><path class="m" d="M267.47,372.964s-10.705-18.743-12.454-20.677c-11.005-12.18-25.614-12.321-40.479-9.239-4.3.883-15.7,6.872-19.829,6.05-3.215-.645-7.066-12.887-17.382-12.242S166.4,349.734,166.4,349.734s-6.465-14.212-16.782-12.9-10.219,10.908-2.535,18.018c0,0-16.42-4.929-32.354,2.7s-8.329,17.665-8.329,17.665Z" transform="translate(-94.574 -71.125)"/><path class="p" d="M416.809,377.428H400.15a3.533,3.533,0,0,1-3.533-3.241L395.54,361h25.888l-1.1,13.152A3.533,3.533,0,0,1,416.809,377.428Z" transform="translate(-128.541 -73.956)"/><path class="p" d="M528.185,377.428H511.509a3.533,3.533,0,0,1-3.533-3.241L506.89,361h25.888l-1.06,13.187A3.533,3.533,0,0,1,528.185,377.428Z" transform="translate(-141.541 -73.956)"/><path class="q" d="M518.276,332.15H397.5l8.541-62.269a9.8,9.8,0,0,1,9.716-8.47h84.262a9.8,9.8,0,0,1,9.716,8.47Z" transform="translate(-128.77 -62.329)"/><path class="q" d="M504.14,318.479H416l6.183-62.561a9.1,9.1,0,0,1,9.053-8.188h57.553a9.1,9.1,0,0,1,9.089,8.188Z" transform="translate(-130.93 -60.732)"/><path class="r" d="M329.184,266.85l-1.934,14.141H448.035l-1.943-14.141Z" transform="translate(-58.52 -11.17)"/><path class="q" d="M459.379,305.991H312.45l2.72-31.921H456.659Z" transform="translate(-56.792 -12.013)"/><circle class="r" cx="26.877" cy="26.877" r="26.877" transform="translate(291.931 218.023) rotate(-33.07)"/><circle class="j" cx="23.247" cy="23.247" r="23.247" transform="translate(305.341 203.221) rotate(-1.34)"/><path class="s" d="M472.821,312.642a3.065,3.065,0,0,1-2.137-.883,2.79,2.79,0,0,1-.371-.468,3.573,3.573,0,0,1-.283-.512,4.128,4.128,0,0,1-.168-.565,3.345,3.345,0,0,1-.062-.592,3.038,3.038,0,0,1,.883-2.129,3.073,3.073,0,0,1,2.729-.83,3.139,3.139,0,0,1,.556.177,2.729,2.729,0,0,1,.53.274,3.745,3.745,0,0,1,.459.38,3.039,3.039,0,0,1,.883,2.129,3.368,3.368,0,0,1-.062.592,4.136,4.136,0,0,1-.168.565,4.7,4.7,0,0,1-.274.512,3.376,3.376,0,0,1-.38.468,3.668,3.668,0,0,1-.459.371,2.308,2.308,0,0,1-.53.274,2.542,2.542,0,0,1-.556.177,2.726,2.726,0,0,1-.592.062Z" transform="translate(-137.211 -67.606)"/><path class="s" d="M460.333,309.308h0a3.029,3.029,0,0,1-2.561-3.418h0a3.03,3.03,0,0,1,3.418-2.561h0a3.03,3.03,0,0,1,2.561,3.418h0a3.021,3.021,0,0,1-2.994,2.588h0Zm-9.716-4.125h0a3.029,3.029,0,0,1-.512-4.24h0a3.012,3.012,0,0,1,4.231-.521h0a3.021,3.021,0,0,1,.521,4.231h0a3.012,3.012,0,0,1-2.385,1.166h0a3,3,0,0,1-1.837-.618Zm-6.333-8.435a3.012,3.012,0,0,1,1.661-3.922h0a3.021,3.021,0,0,1,3.931,1.669h0a3.029,3.029,0,0,1-1.669,3.93h0a3.165,3.165,0,0,1-1.131.212h0a2.994,2.994,0,0,1-2.773-1.89Zm1.272-7.066a3.03,3.03,0,0,1-2.57-3.418h0A3.038,3.038,0,0,1,446.4,283.7h0a3.038,3.038,0,0,1,2.57,3.409h0a3.021,3.021,0,0,1-2.994,2.6h0a3.5,3.5,0,0,1-.406-.009Zm2.084-8.877a3.021,3.021,0,0,1-.53-4.24h0a3.012,3.012,0,0,1,4.231-.521h0a3,3,0,0,1,.53,4.231h0a3,3,0,0,1-2.385,1.166h0a3.021,3.021,0,0,1-1.828-.618Zm24.36-3a3.012,3.012,0,0,1-.53-4.231h0a3.021,3.021,0,0,1,4.24-.539h0a3.03,3.03,0,0,1,.521,4.24h0a3.021,3.021,0,0,1-2.376,1.166h0a3.021,3.021,0,0,1-1.837-.618Zm-18.133-3.657a3,3,0,0,1,1.669-3.922h0a3.03,3.03,0,0,1,3.93,1.661h0a3.021,3.021,0,0,1-1.678,3.931h0a2.952,2.952,0,0,1-1.122.221h0a3.012,3.012,0,0,1-2.782-1.873Zm11.288.759a3.021,3.021,0,0,1-2.561-3.418h0A3.021,3.021,0,0,1,466,268.926h0a3.021,3.021,0,0,1,2.57,3.409h0a3.03,3.03,0,0,1-2.986,2.6h0a3.512,3.512,0,0,1-.415-.009Z" transform="translate(-134.077 -63.203)"/><path class="s" d="M483.7,287.073a3.269,3.269,0,0,1-.592-.062,3.207,3.207,0,0,1-.565-.168,5.877,5.877,0,0,1-.521-.274,3.886,3.886,0,0,1-.459-.38,3.029,3.029,0,0,1-.883-2.129,2.765,2.765,0,0,1,.062-.6,3.476,3.476,0,0,1,.45-1.086,3.671,3.671,0,0,1,.371-.459,3.126,3.126,0,0,1,.459-.371,3.694,3.694,0,0,1,.521-.283,3.147,3.147,0,0,1,.565-.159,3.02,3.02,0,0,1,2.72.812,3.084,3.084,0,0,1,.38.459,3.022,3.022,0,0,1,.274.53,2.546,2.546,0,0,1,.177.556,2.758,2.758,0,0,1,.053.6A3.012,3.012,0,0,1,483.7,287.073Z" transform="translate(-138.481 -64.621)"/><path class="p" d="M426.513,179.217A12.9,12.9,0,0,1,429.1,165.73s21.861,14.132,46.291,10.166c0,0,2.65,7.366-4.831,14.194C470.561,190.046,444.408,195.01,426.513,179.217Z" transform="translate(-132.054 -51.159)"/><path class="q" d="M447.525,143.816c-15.731-13.249-45.523-15.13-83.238-9.053-32.433,5.22-65.458,17.471-76.49,34.774-5.017,7.879-1.608,29.766-1.608,29.766,29.872,1.864,40.815-23.848,40.815-23.848s-2-7.287,4.7-10.511c23.415-11.27,59.734-15.112,73.239-11.791a10.016,10.016,0,0,1,7.755,8.506s18.451,20.951,46.23,9.8C458.919,171.488,454.662,149.84,447.525,143.816Z" transform="translate(-115.643 -47.157)"/><path class="p" d="M333.178,193a12.9,12.9,0,0,0-6.686-12s-16.314,20.315-40.762,24.183c0,0-.23,7.834,9.044,11.959C294.8,217.16,321.157,213.68,333.178,193Z" transform="translate(-115.721 -52.941)"/><g class="t" transform="translate(80.685 208.673)"><rect class="u" width="143.352" height="94.649" rx="14.22" transform="translate(0.009 -0.009)"/><path class="v" d="M327.952,284.83a12.551,12.551,0,0,0-12.56-12.56H197.169A12.56,12.56,0,0,0,184.6,284.83l65.007,52.695a10.475,10.475,0,0,0,13.187,0Z" transform="translate(-184.6 -272.27)"/><path class="w" d="M192.973,357.151v-69.53a12.56,12.56,0,0,1,12.56-12.56H323.2a12.428,12.428,0,0,0-7.808-2.791H197.169A12.56,12.56,0,0,0,184.6,284.83v69.53a12.569,12.569,0,0,0,12.569,12.56h.556A12.48,12.48,0,0,1,192.973,357.151Z" transform="translate(-184.6 -272.27)"/><path class="u" d="M248.353,328.365,184.6,272.27H327.952l-63.753,56.1A12,12,0,0,1,248.353,328.365Z" transform="translate(-184.6 -272.27)"/><path class="x" d="M248.353,328.365,184.6,272.27H327.952l-63.753,56.1A12,12,0,0,1,248.353,328.365Z" transform="translate(-184.6 -272.27)"/></g><path class="f" d="M394.537,200.677s4.081-11.774,4.372-13.072c1.687-7.649,2.146-24.236,2.04-27.761s-.433-6.624-.5-7.066a17.472,17.472,0,0,0-2.27-2.8,4.412,4.412,0,0,1-.68.079v.442l-.945-.821h-.786l-.079.371-1.131-.539h-1.078s.7,2.243,1.1,3.6,0,1.475,0,1.475a3,3,0,0,1-1.219.221,8.5,8.5,0,0,0-1.537-.071s3.295,4.293,3.445,4.69a7.693,7.693,0,0,1,1.325,6.183,157.179,157.179,0,0,1-4.69,17.135c.106-.238-4.416,12.71-4.416,12.71Z" transform="translate(-127.6 -49.265)"/><path class="e" d="M391.665,221.674c1.263-9.91,6.333-21.481,6.333-21.481s-7.746-1.528-9.716-4.284c0,0-2.65,6.518-4.2,9.76-1.7,3.595-4.081,7.5-1.086,9.636S391.214,225.137,391.665,221.674Z" transform="translate(-126.909 -54.682)"/><path class="i" d="M359.36,372.34v6.368h12.251s-.468-2.305-6.271-3.374l-.883-2.994Z" transform="translate(-124.317 -75.28)"/><path class="i" d="M380.45,372.34v6.368h12.242s-.459-2.305-6.271-3.374l-.883-2.994Z" transform="translate(-126.78 -75.28)"/><path class="i" d="M361.316,265s-1.713,17.806-1.766,34.535-1.06,61.757-1.06,61.757h6.757s6.969-43.35,9.5-54.108,9.115-41.981,9.115-41.981Z" transform="translate(-124.216 -62.748)"/><path class="f" d="M372.685,198.13s-.442,3.409-.8,5.141a13.58,13.58,0,0,1-.883,3.171c-.583,1.175-4.178,4.752-4.178,4.752s11.2,5.909,14.494,5.909,2.137-6.607,2.137-6.607-3.586-2.835-4.125-4.266a31.858,31.858,0,0,1-.866-5.564Z" transform="translate(-125.189 -54.941)"/><path class="i" d="M378.33,284.254s1.263,28.264,1.519,33.237,0,43.712,0,43.712,6.333.168,6.333,0,5.971-43.924,6.739-56.29.327-27.036,1.351-28.75-2.773-11.147-2.773-11.147l-8.965-.327Z" transform="translate(-126.532 -62.712)"/><path class="e" d="M367.83,208.9s-9.46-3.8-11.023-.68c-1.184,2.349-.168,17.488.362,21.719.459,3.674,3,34.632,3,34.632s3.533,5.476,20.553,3.295c6.554-.883,9.786-4.036,9.786-4.036s-1.846-36.938-2.349-40.63a78.646,78.646,0,0,0-2.261-9.486l-5.061-3.339s1.616,3.533-2.959,4.584C368.678,216.988,367.83,208.9,367.83,208.9Z" transform="translate(-123.955 -55.975)"/><path class="f" d="M381.951,183.55c1.077.433,2.95,1.4,3.162,2.288a38.036,38.036,0,0,1,1.069,5.07c.1,1.572.318,4.54.318,6.395a16.251,16.251,0,0,1-1.546,6,9.2,9.2,0,0,1-4.584.742c-1.051-.3-7.225-3.533-7.614-7.4,0,0-1.1.574-3.109-2.694-.521-.883,1.29-7.163,1.528-8.294.592-2.738,7.349-.583,8.832-1.016A3.278,3.278,0,0,0,381.951,183.55Z" transform="translate(-125.508 -53.239)"/><path class="i" d="M384.686,185.427s-4.734,2.968-6.58,3.118-4.558,2.694-4.5,3.48a1.7,1.7,0,0,1-.777,1.325s-1.148-1.828-2.093-1.643c-1.864.38-.768,2.65.247,3.18a14.549,14.549,0,0,0,2,.821,9.714,9.714,0,0,1,.079,1.961,8.943,8.943,0,0,1-.795,2.314s-2.182-4.6-4.134-6.315c-4.655-4.081-1.289-11.659,3.295-13.081,1.855-.574,6.933-.954,9.415.15A6.748,6.748,0,0,1,384.686,185.427Z" transform="translate(-125.08 -52.828)"/><path class="y" d="M375.553,193.09c.071.186.548.221.636.256s.115.115.963,1.422c.636.963,1.687,1.272,3.648.609,1.51-.5,1.3-1.767,1.4-2.411s.239-.715.477-.76.371,0,.68.556.45,1.943,2.023,1.714c1.078-.168,1.369-.468,1.51-1.325a8.686,8.686,0,0,0,.124-2.067c-.044-.565-.053-.883-.345-.945a5.515,5.515,0,0,0-1.29.141,5.3,5.3,0,0,0-2.111.548c-.512.371-.459.6-.724.645s-.318-.177-.883-.353a17.886,17.886,0,0,0-4.036.433c-.936.159-2.226.512-2.2.883A2.936,2.936,0,0,0,375.553,193.09Zm8.091-1.4c.044-.459.08-.406,1.236-.671s1.281-.212,1.519,0a2.481,2.481,0,0,1,.283,1.864,1.281,1.281,0,0,1-1.122,1.342c-1.016.177-1.254-.327-1.546-1.033a4.415,4.415,0,0,1-.415-1.5Zm-6.748.751a9.1,9.1,0,0,1,2.906-.609c1.184-.15,1.572-.194,1.766.221a4.085,4.085,0,0,1,.15,1.519c0,.76-.177,1.422-2.014,1.766a1.987,1.987,0,0,1-2.464-1.1,2.165,2.165,0,0,1-.389-1.8ZM372.9,193.62l2.588-.53.883-1.281s-1,.141-2.65.512a4.892,4.892,0,0,0-1.555.733A2.4,2.4,0,0,1,372.9,193.62Z" transform="translate(-125.813 -54.008)"/><path class="f" d="M349.631,202.969s-2.235-14.185-2.261-15.51c-.124-7.834,3.842-18.363,4.655-21.79s1.343-2.9,1.51-3.348S359.382,161,359.382,161a15.014,15.014,0,0,1,1.89-.671,13.466,13.466,0,0,0,1.855-.486l-.883,1.572s-3.533,2.65-3.78,3.056a7.764,7.764,0,0,0-2.535,5.812c-.15,7.013-.124,14.6-.124,14.6-.053-.256,3.356,14.521,3.356,14.521Z" transform="translate(-122.917 -50.471)"/><path class="e" d="M356.239,229.068c-2.411-6.836-7.949-25.181-7.949-25.181s8.188-2.067,10.493-4.566l3.913,11.606c1.272,3.763,3.18,7.949-.044,9.716S357.4,232.318,356.239,229.068Z" transform="translate(-123.025 -55.08)"/><path class="z" d="M533.313,245.505c2.129,1.978,3.63,1.316,6.819,12.242,2.04,6.986,9.477,42.2,9.477,42.2l-4.416,1.926c-6.006-16.835-6-16.782-13.019-30.472a61.014,61.014,0,0,1-4.831-13.16l-12.975-.777c-8.117-3.33-5.3-15.174-5.3-15.174S531.184,243.527,533.313,245.505Z" transform="translate(-141.74 -60.097)"/><path class="aa" d="M480.565,233.089l11.712-7.5,11.323,8.833,14.132,4.558h-.079c5.679,1.97,12.154,4.84,14.132,6.7,2.129,1.978,6.324,4.787,2.941,15.66-2.155,6.942-11.57,42.131-11.57,42.131l-4.77-.883s1.7-20.394,3.392-35.648c.821-7.393,1.1-9.451,1.1-9.451s-31.506,3.436-41.654-1.926C474.109,251.849,480.565,238.777,480.565,233.089Z" transform="translate(-138.155 -58.147)"/><path class="i" d="M528.7,310.88s-.141,1.281-2.19,1.855a3.533,3.533,0,0,1-3.454-1.113l-.45,4.187,6.554,4.619H534.6l-2.942-3.268Z" transform="translate(-143.376 -68.104)"/><path class="i" d="M553.653,304.32a2.252,2.252,0,0,1-.813,2.968,3.533,3.533,0,0,1-3.63,0l.883,4.125,15.475-4.84Z" transform="translate(-146.482 -67.338)"/><path class="f" d="M533.2,183.785a32.95,32.95,0,0,1-2.579-3.065l-.592-2.694s-1.042-1.4-1.846-2.243-1.528-4.416-1.528-4.416l1.051-.636a13.462,13.462,0,0,0,.822,1.97,1.845,1.845,0,0,0,1.024.415,19.284,19.284,0,0,0,0-2.508,21.729,21.729,0,0,0-.954-4.24l.883-.424a20.466,20.466,0,0,1,.83,1.943c.186.618.512,1.881.512,1.881a21.409,21.409,0,0,0-.274-2.871c-.194-.83-.353-1.908-.353-1.908l.883-.23a17.748,17.748,0,0,1,.61,2.314c.141.945.468,2.553.468,2.553a28.763,28.763,0,0,0,0-2.924c-.089-.689-.1-1.025-.1-1.025h.972a7.316,7.316,0,0,1,.344,2.2,10.276,10.276,0,0,0,.1,1.766,11.27,11.27,0,0,0,.274-2.385,2.148,2.148,0,0,1,0-.813l.751.133s.424,2.968.557,4.761-.079,4.072-.1,5.344,0,2.261,0,2.261Z" transform="translate(-143.849 -51.045)"/><path class="f" d="M510.6,189.137a117.658,117.658,0,0,0,12.083,8.621s2.244-5.635,3.313-9.627c1.281-4.77,1.66-6.969,1.66-6.969l4.557-.371s-1.448,12.189-3.242,20.465c-1.766,8.038-3.93,6.6-5.856,6.183S503.06,197.3,503.06,197.3l1.934-10.352S506.292,185.586,510.6,189.137Z" transform="translate(-141.094 -52.917)"/><path class="ab" d="M489.91,157.029c.972-.556,5.653-.936,8.585.883,5.609,3.453,2.915,12.922,2.57,15.095s1.661,6.112,1.625,8.709-.654,3.533-2.6,6.068a4.866,4.866,0,0,0-.724,2.014,18.548,18.548,0,0,1-2.65-7.693c-.459-4.478-1.4-3.427-3.648-8.347s-2.34-12.321-2.34-12.321Z" transform="translate(-139.559 -50.089)"/><path class="ab" d="M493.026,160.292l-4.664-3.206a6.828,6.828,0,0,0-6.3,3.012c-2.314,3.533-3.118,8.674-3.639,12.533s-1.881,11.1-1.767,13.982,3.586,3.268,3.586,3.268l11.729-5.07a34.983,34.983,0,0,1-.106-12.728A62.954,62.954,0,0,0,493.026,160.292Z" transform="translate(-138.011 -50.146)"/><path class="f" d="M498,161.576c.247,1.457,1.378,5.741,1.484,8.488s-.212,7.278-2.031,8.532-5.238.247-7.737-.786a5.892,5.892,0,0,1-3.6-4.416c-.486-1.625-.318-5.891.256-8.956a5.458,5.458,0,0,1,4.778-4.734C493.409,159.288,498,161.576,498,161.576Z" transform="translate(-139.083 -50.449)"/><path class="f" d="M487.233,173.41s.636,6.828-.795,10.042c-1,2.217-5.008,3.162-5.008,3.162a22.627,22.627,0,0,0,3.913,12.048c4.028,5.935,16.632,8.126,16.632,8.126a55.34,55.34,0,0,0,3.807-10.475,12.267,12.267,0,0,0-2.226-9.839s-3.4-1.113-5.035-1.767c-3.975-1.493-3.533-7.8-3.533-7.8Z" transform="translate(-138.569 -52.055)"/><path class="e" d="M494.059,190.794s-8.152-2.067-10.6-3.657l-8.073,4.8s-4.752,4.531,3.348,16.437c0,0,3.074,10.838-1.917,29.942,0,0,1.351,4.92,8.921,2.3,6.51-2.252,6.66-4.019,12.366-5.467,8.426-2.129,10.643-3.445,10.643-3.445-4.416-6.651-3.639-17.038-3.639-17.038s5.017-4.8,2.862-9.716c-3.1-7.066-4.142-17.109-4.142-17.109l-4.328-1.1a32.506,32.506,0,0,1-3.454,3.674A1.846,1.846,0,0,1,494.059,190.794Z" transform="translate(-137.702 -53.611)"/><path class="j" d="M500.263,186.24s-1,3.692-3.533,4.5c0,0,1,5.052,3.392,4.178,3.365-1.236,2.049-8.223,2.049-8.223Z" transform="translate(-140.355 -53.553)"/><path class="j" d="M483.61,186.329s1.6,7.728,5.865,8.356,5.706-4.072,5.706-4.072-9.044-2.65-9.928-5.423Z" transform="translate(-138.823 -53.43)"/><path class="ab" d="M490.454,159.625c-.786.044-1.369,3.771-1.448,5.847s-3.18,3.718-1.811,8.285,1.184,8.983,3.021,13.982-.45,6.845-1.44,8.568a66.417,66.417,0,0,1-5.3-6.474,5.193,5.193,0,0,0-5.626-2.517s6.006-11.677,5.8-14.83-.759-7.949,1.767-10.829S490.454,159.625,490.454,159.625Z" transform="translate(-138.151 -50.432)"/><path class="f" d="M488.054,169.982s-1.67-1.828-2.773-1.546-1.175,1.934-.336,3.286,3.957,2.12,3.957,2.12Z" transform="translate(-138.913 -51.471)"/><path class="ab" d="M492.453,165.249a22.772,22.772,0,0,0,4.743-.344c3.03-.336,4.3.442,4.3.442l-1.139-5.035s-3.533-1.97-6.041-1.952c-3.2,0-5.988,1.245-4.416,2.279S492.453,165.249,492.453,165.249Z" transform="translate(-139.505 -50.298)"/><path class="f" d="M481.971,198.2c-.539,6.315-2.4,24.334-2.4,24.334,5.759,5.026,13.894,13.4,13.894,13.4s-2.314,4.566-3.3,3.8c-7.949-6.183-16.985-9.866-17.665-14.132-1.069-7.066-1.431-24.908,1.175-30.711C475.717,190.4,482.562,191.51,481.971,198.2Z" transform="translate(-137.431 -54.247)"/><path class="f" d="M499.33,242.224c2.4.883,3.922,1.766,3.78,2.65-.106.618-2.155-.512-3.392-.477a6.836,6.836,0,0,0,2.932,2.871c1.59.786,2.482,1.872,1.625,2.791s-2.42,2.208-3.445,1.767-4.663-3.012-6.032-3.718-1.917-2.42-2.65-2.9,1.289-4.09,1.289-4.09c.38.106,2.358.53,2.358.53a13.242,13.242,0,0,0,1.97.168A4.789,4.789,0,0,1,499.33,242.224Z" transform="translate(-139.802 -59.96)"/></g><rect class="a" width="540" height="309" transform="translate(-13.141 -2.707)"/><line class="ac" x1="538.352" transform="translate(-12.338 305.083)"/></g></svg>