<svg xmlns="http://www.w3.org/2000/svg" width="321.221" height="265.063" viewBox="0 0 321.221 265.063"><defs><style>.a{fill:#e5e6e7;}.a,.b,.c,.d,.e,.f,.g,.h,.i,.j,.m,.p,.q{fill-rule:evenodd;}.b{fill:#5f5f5f;}.c,.o{fill:#e8a963;}.d{fill:#fcbf82;}.e{fill:#2b4e72;}.f{fill:#ffcd07;}.g,.k{fill:#ba893a;}.h{fill:#3c3c3c;}.i{fill:#b3b3b3;}.j{fill:#ffcd00;}.l{fill:#dfe0df;}.m{fill:#363435;}.n,.q{fill:#6f7170;}.p{fill:#c1a07c;}</style></defs><g transform="translate(0 0.005)"><path class="a" d="M434.221,506.166c0,10.653-71.921,19.291-160.611,19.291S113,516.819,113,506.166s71.921-19.286,160.611-19.286S434.221,495.518,434.221,506.166Z" transform="translate(-113 -260.399)"/><path class="b" d="M373.529,323.72c19.16,0,34.734-5.989,34.734-13.3s-15.569-13.3-34.734-13.3-34.729,5.989-34.729,13.3S354.435,323.72,373.529,323.72Z" transform="translate(-215.19 -174.52)"/><path class="c" d="M289.32,205.07l5.929,47.216L237.32,276.493l3.4-71.423Z" transform="translate(-107.404 -92.811)"/><path class="d" d="M193.365,462.664l2.458-4.927,18.914-40.784c.63-2.266-11.726-15.06-13.3-16.828l-11.972-13.806a7.27,7.27,0,0,0-9.268-1.259,6.969,6.969,0,0,0-2.71,3.285l-21.311,52.822-8.633,21.492Z" transform="translate(-128.632 -213.809)"/><path class="d" d="M596.87,462.671H551.1l-1.511-2.962-1.007-1.954L542.6,444.9v-.131l-.066-.126-1.095-2.332h0l-.192-.252L534.5,427.438l-4.856-10.467c-.547-2.266,11.792-15.06,13.363-16.828l1.768-2.08L554.92,386.4l.547-.5h0a7.062,7.062,0,0,1,8.7-.821,6.345,6.345,0,0,1,2.737,3.285l21.054,52.192.252.63Z" transform="translate(-301.553 -213.817)"/><path class="e" d="M424.905,406.013l-2.4,1.265-38.386,19.16-1.7.821s-3.4-10.275-5.294-15.629V411.5l-.066-.126a27.981,27.981,0,0,0-1.133-2.9l-.126.317c-.5,2.146-1.095,4.226-1.516,6.241-1.193,5.047-2.266,9.772-3.285,14.37H217.013c-1.193-5.228-2.584-10.773-4.16-16.828l-.186-.69-.126-.318c-.192-.5-.066.318-.63-1.7l-6.684,16.768-1.889-2.08v-.066L164,400.862l28.466-65.051c.5-1.325,6.624-9.514,7.664-10.461a17.72,17.72,0,0,1,7.691-4.035l18.531-3.723,33.722-6.613a12.215,12.215,0,0,1,3.345-.509L274.827,321c11.091,9.454,29.561,9.142,40.028-1.007l10.779-9.2c5.989,0,25.844,5.168,33.026,6.618,11.918,2.458,22.571,4.664,22.992,4.856l.947.438c4.286,2.08,9.306,8.7,11.091,13.177Z" transform="translate(-136.081 -180.562)"/><path class="f" d="M398.885,434.317H251.571L236.32,327.853a19.672,19.672,0,0,1,4.286-1.642l18.531-3.723,2.71-.5,16.582,54.4,94.027-.186,13.823-54.9,5.168,1.007c7,1.451,13.615,2.836,17.906,3.717l-2.409,50.747Z" transform="translate(-168.811 -185.463)"/><path class="g" d="M538.133,459.248l-.06.317c-.509,2.146-1.139,4.226-1.582,6.241-1.2,5.047-2.19,9.772-3.213,14.37H522.69c2.584-10.018,5.863-23.7,8.633-35.233,2.962-12.421,5.233-22.313,5.233-22.313Z" transform="translate(-298.413 -231.322)"/><path class="h" d="M354.523,102.457l-9.394,20.359a26.063,26.063,0,0,0,6.5,17.4l45.262,18.027,13.992-11.217.192-32.906-4.035-1.768L403.086,98.86l-30.475-6.93Z" transform="translate(-218.055 -81.657)"/><path class="i" d="M370,178.2c24.837,0,45.07-3.657,45.07-8.129S394.815,161.94,370,161.94s-45.13,3.651-45.13,8.129S345.125,178.2,370,178.2Z" transform="translate(-208.886 -113.341)"/><path class="d" d="M410.405,163.584c-1.325-3.339-3.531-1.642-5.294.547.5-25.97-13.242-39.081-13.242-39.081H340.438s-13.746,13.111-13.3,38.868c-1.763-2.14-3.909-3.651-5.168-.378-2.332,5.989,3.153,14.233,2.08,22.631-.7,5.671,3.783,5.108,6.618,3.531a101.115,101.115,0,0,0,5.168,15.251c5.359,12.481,20.8,23.89,30.256,23.89s24.711-11.5,30.257-23.89a72.073,72.073,0,0,0,5.233-15.328c2.836,1.642,7.434,2.272,6.744-3.465-1.095-8.381,4.412-16.642,2.08-22.631Z" transform="translate(-207.308 -96.646)"/><path class="h" d="M439.008,185.585c2.146-18.4,3.974-48.913-23.638-60.951l8.447-4.035s24.711,4.976,26.977,43.116l-6.613,27.607h-.06a5.14,5.14,0,0,1-5.108-5.737Z" transform="translate(-249.844 -94.632)"/><path class="h" d="M342.23,185.6c-2.146-18.4-3.9-48.891,23.7-60.934l-8.447-4.035s-24.711,4.976-26.977,43.116l6.618,27.607h.06a5.091,5.091,0,0,0,5.042-5.737Z" transform="translate(-211.438 -94.646)"/><path class="f" d="M414.4,132.293c-.06-.252-.126-.547-.186-.947-.7-2.146-2.458-8.573-2.458-10.949,0-18.279-17.151-33.158-38.32-33.158-21.054,0-38.265,14.879-38.265,33.158,0,2.146-1.828,8.387-3.148,11.918Z" transform="translate(-212.122 -79.534)"/><path class="j" d="M398.63,92.947a9.9,9.9,0,1,0-9.665-9.895,9.9,9.9,0,0,0,9.665,9.895Z" transform="translate(-237.894 -73.16)"/><path class="g" d="M366.44,94.767a41.841,41.841,0,0,1,11.534-4.927,6.241,6.241,0,0,1,.378,2.19v26.605a5.956,5.956,0,1,1-11.912,0Z" transform="translate(-227.699 -80.711)"/><path class="g" d="M425.66,89.39A40.045,40.045,0,0,1,437,93.928v24.525a5.923,5.923,0,1,1-11.846,0V91.848a5.223,5.223,0,0,1,.5-2.458Z" transform="translate(-254.271 -80.507)"/><path class="g" d="M415.376,166.6c0,2.71-1.451,4.79-3.339,4.79H324.995c-1.894,0-3.345-2.08-3.345-4.79,0-2.584,1.451-4.664,3.345-4.664H412.1c1.823,0,3.285,2.08,3.285,4.664Z" transform="translate(-207.429 -113.341)"/><rect class="k" width="39.273" height="5.294" transform="translate(109.617 209.965)"/><rect class="l" width="39.393" height="24.393" transform="translate(164.333 190.865)"/><path class="m" d="M450.1,420.1H437.43a1.478,1.478,0,0,1-1.451-1.511V416.13a1.423,1.423,0,0,1,1.451-1.451H450.1a1.423,1.423,0,0,1,1.445,1.451v2.458A1.478,1.478,0,0,1,450.1,420.1Z" transform="translate(-259.171 -227.724)"/><rect class="n" width="16.768" height="1.889" transform="translate(185.256 196.476)"/><rect class="n" width="16.768" height="1.894" transform="translate(185.256 200.954)"/><rect class="n" width="16.768" height="1.889" transform="translate(185.256 205.426)"/><rect class="o" width="5.485" height="4.916" transform="translate(172.462 205.426)"/><path class="d" d="M438.605,440.68h0a.706.706,0,0,0,.942-.5l.252-1.259a.712.712,0,1,0-1.385-.318l-.252,1.259a.635.635,0,0,0,.443.821Z" transform="translate(-260.143 -238.281)"/><path class="p" d="M432.9,434.486l.317,4.035a4.6,4.6,0,0,1-.066.947,3.071,3.071,0,0,1-.5,1.133l-.5.547-1.385,1.73a1.642,1.642,0,0,1-1.325.438c-.378,0-.7-.06-.821-.252l-1.642-1.511-.63-.443a2.55,2.55,0,0,1-.63-1.068,3.744,3.744,0,0,1-.257-.887l-.312-4.029a2.657,2.657,0,0,1,2.015-3.027l3.285-.252a2.643,2.643,0,0,1,2.458,2.644Z" transform="translate(-254.26 -235.492)"/><path class="d" d="M432.412,434.574l.318,4.035a4.546,4.546,0,0,1-.066.942,3.136,3.136,0,0,1-.5,1.139l-.547.547-1.319,1.7a1.243,1.243,0,0,1-.821.378c-.378,0-.7-.06-.821-.252l-1.642-1.511-.63-.443a2.551,2.551,0,0,1-.63-1.068,3.745,3.745,0,0,1-.257-.887l-.312-4.029a2.658,2.658,0,0,1,2.015-3.027l2.775-.192c1.2-.126,2.332,1.095,2.458,2.65Z" transform="translate(-254.278 -235.514)"/><path class="d" d="M425.187,441.787h0a.673.673,0,0,1-.947-.378l-.5-1.2a.788.788,0,0,1,.312-.947.766.766,0,0,1,1.013.378l.5,1.265a.766.766,0,0,1-.378.881Z" transform="translate(-253.606 -238.819)"/><path class="h" d="M320.131,358.8l-.312,3.279-1.265-2.02-1.133-.126-4.16-.438-.63,3.339v.126l-.06-.126-.761-3.213.5-3.471h.443l.7-1.511.378.443.63-1.013,1.828,1.139.443-.63L319,356.468h0l.443-.443Z" transform="translate(-141.116 -160.244)"/><path class="q" d="M432.626,458.039h-8.381a1.4,1.4,0,0,1-1.385-1.385,1.341,1.341,0,0,1,1.385-1.325h8.381a1.347,1.347,0,0,1,1.39,1.325,1.4,1.4,0,0,1-1.39,1.385Z" transform="translate(-253.233 -246.12)"/></g></svg>